<svg width="118" height="34" viewBox="0 0 118 34" fill="none" xmlns="http://www.w3.org/2000/svg">
<path d="M4.7755 18.136C4.88217 18.6693 5.17017 19.1173 5.6395 19.48C6.13017 19.8213 6.77017 19.992 7.5595 19.992C8.37017 19.992 9.0315 19.9067 9.5435 19.736C10.0768 19.5653 10.6635 19.3413 11.3035 19.064C11.5168 18.9573 11.6982 18.904 11.8475 18.904C12.1035 18.904 12.2315 19.064 12.2315 19.384C12.2315 19.8747 12.0608 20.4293 11.7195 21.048C11.3995 21.6667 10.8448 22.2 10.0555 22.648C9.2875 23.096 8.22083 23.32 6.8555 23.32C4.91417 23.32 3.35683 22.744 2.1835 21.592C1.0315 20.4187 0.4555 18.8293 0.4555 16.824C0.4555 15.5867 0.700833 14.4773 1.1915 13.496C1.7035 12.5147 2.42883 11.736 3.3675 11.16C4.30617 10.584 5.42617 10.296 6.7275 10.296C8.0715 10.296 9.1595 10.5733 9.9915 11.128C10.8448 11.6613 11.4742 12.3547 11.8795 13.208C12.2848 14.0613 12.4875 14.9573 12.4875 15.896C12.4875 16.3013 12.4768 16.6533 12.4555 16.952C12.4342 17.2293 12.4235 17.464 12.4235 17.656C12.4022 17.976 12.1995 18.136 11.8155 18.136H4.7755ZM4.7435 15.416H8.3275C8.37017 15.032 8.2635 14.648 8.0075 14.264C7.77283 13.88 7.3035 13.688 6.5995 13.688C5.98083 13.688 5.52217 13.88 5.2235 14.264C4.92483 14.6267 4.76483 15.0107 4.7435 15.416ZM17.9875 11.832C18.3928 11.4053 18.8622 11.0533 19.3955 10.776C19.9502 10.4773 20.5795 10.328 21.2835 10.328C23.0968 10.328 24.3662 11.0213 25.0915 12.408C25.5182 11.832 26.0515 11.3413 26.6915 10.936C27.3315 10.5307 28.0995 10.328 28.9955 10.328C30.5102 10.328 31.6728 10.7867 32.4835 11.704C33.2942 12.6 33.6995 13.9973 33.6995 15.896V22.584C33.6995 22.8613 33.5608 23 33.2835 23H29.9235C29.6248 23 29.4755 22.8613 29.4755 22.584V16.44C29.4755 15.5867 29.3155 15 28.9955 14.68C28.6968 14.3387 28.3022 14.168 27.8115 14.168C27.2995 14.168 26.8835 14.36 26.5635 14.744C26.2648 15.1067 26.1155 15.6933 26.1155 16.504V22.584C26.1155 22.8613 25.9875 23 25.7315 23H22.2755C22.0408 23 21.9235 22.8613 21.9235 22.584V16.44C21.9235 15.5867 21.7742 15 21.4755 14.68C21.1768 14.3387 20.7608 14.168 20.2275 14.168C19.7155 14.168 19.3102 14.36 19.0115 14.744C18.7128 15.1067 18.5635 15.6933 18.5635 16.504V22.584C18.5635 22.8613 18.4248 23 18.1475 23H14.7555C14.4782 23 14.3395 22.8613 14.3395 22.584V11.064C14.3395 10.7867 14.4782 10.648 14.7555 10.648H15.3315C15.9715 10.648 16.5155 10.744 16.9635 10.936C17.4115 11.1067 17.7528 11.4053 17.9875 11.832ZM44.254 22.104C43.87 22.4453 43.422 22.7227 42.91 22.936C42.4193 23.1493 41.8433 23.256 41.182 23.256C39.9447 23.256 38.8993 22.968 38.046 22.392C37.214 21.7947 36.5847 21.0053 36.158 20.024C35.7313 19.0213 35.518 17.9227 35.518 16.728C35.518 15.512 35.742 14.424 36.19 13.464C36.6593 12.4827 37.3207 11.7147 38.174 11.16C39.0487 10.584 40.0727 10.296 41.246 10.296C42.8247 10.296 44.0513 10.7653 44.926 11.704C45.1607 11.32 45.502 11.0533 45.95 10.904C46.398 10.7333 46.9313 10.648 47.55 10.648H48.094C48.3713 10.648 48.51 10.7867 48.51 11.064V22.584C48.51 22.8613 48.3713 23 48.094 23H44.67C44.3927 23 44.254 22.8613 44.254 22.584V22.104ZM42.142 19.352C42.3767 19.352 42.654 19.2987 42.974 19.192C43.3153 19.064 43.614 18.8187 43.87 18.456C44.126 18.072 44.254 17.5067 44.254 16.76C44.254 16.0133 44.126 15.4693 43.87 15.128C43.614 14.7867 43.3153 14.5627 42.974 14.456C42.654 14.3493 42.3767 14.296 42.142 14.296C41.9287 14.296 41.6407 14.3493 41.278 14.456C40.9153 14.5627 40.5953 14.7867 40.318 15.128C40.0407 15.4693 39.902 16.0133 39.902 16.76C39.902 17.5067 40.0407 18.072 40.318 18.456C40.5953 18.8187 40.9047 19.064 41.246 19.192C41.6087 19.2987 41.9073 19.352 42.142 19.352ZM50.4578 7.512C50.4578 6.89333 50.6818 6.36 51.1298 5.912C51.5778 5.44267 52.1218 5.208 52.7618 5.208C53.4018 5.208 53.9351 5.44267 54.3618 5.912C54.8098 6.36 55.0338 6.89333 55.0338 7.512C55.0338 8.152 54.8098 8.696 54.3618 9.144C53.9351 9.592 53.4018 9.816 52.7618 9.816C52.1218 9.816 51.5778 9.592 51.1298 9.144C50.6818 8.696 50.4578 8.152 50.4578 7.512ZM50.7138 22.584V11.064C50.7138 10.7867 50.8524 10.648 51.1298 10.648H51.8658C52.8898 10.648 53.6578 10.8933 54.1698 11.384C54.7031 11.8533 54.9698 12.6533 54.9698 13.784V22.584C54.9698 22.8613 54.8204 23 54.5218 23H51.1298C50.8524 23 50.7138 22.8613 50.7138 22.584ZM61.021 23.256C59.9117 23.256 59.005 22.904 58.301 22.2C57.6183 21.4747 57.277 20.3653 57.277 18.872V5.656C57.277 5.35733 57.4157 5.208 57.693 5.208H58.429C59.4317 5.208 60.189 5.45333 60.701 5.944C61.2343 6.41333 61.501 7.21333 61.501 8.344V18.392C61.501 18.9253 61.5863 19.2773 61.757 19.448C61.949 19.6187 62.205 19.704 62.525 19.704C62.7597 19.704 62.9837 19.6507 63.197 19.544C63.4103 19.4373 63.613 19.3093 63.805 19.16C63.8477 19.1173 63.901 19.0853 63.965 19.064C64.0503 19.0213 64.1357 19 64.221 19C64.3703 19 64.4663 19.0747 64.509 19.224C64.573 19.3733 64.605 19.5013 64.605 19.608C64.605 20.1627 64.4877 20.728 64.253 21.304C64.0183 21.8587 63.6343 22.328 63.101 22.712C62.589 23.0747 61.8957 23.256 61.021 23.256Z" fill="#3B413F"/>
<path d="M69.8448 21.944V22.584C69.8448 22.8613 69.7061 23 69.4288 23H66.0368C65.7594 23 65.6208 22.8613 65.6208 22.584V5.656C65.6208 5.35733 65.7594 5.208 66.0368 5.208H66.7728C67.7754 5.208 68.5328 5.45333 69.0448 5.944C69.5781 6.41333 69.8448 7.21333 69.8448 8.344V11.576C70.2074 11.192 70.6554 10.8827 71.1888 10.648C71.7434 10.392 72.3621 10.264 73.0448 10.264C74.7301 10.264 76.0741 10.8507 77.0768 12.024C78.1008 13.1973 78.6128 14.7653 78.6128 16.728C78.6128 17.9227 78.3994 19.0213 77.9728 20.024C77.5461 21.0053 76.9168 21.7947 76.0848 22.392C75.2741 22.968 74.2714 23.256 73.0768 23.256C72.3514 23.256 71.7221 23.1387 71.1888 22.904C70.6554 22.6693 70.2074 22.3493 69.8448 21.944ZM71.9888 19.352C72.2448 19.352 72.5434 19.2987 72.8848 19.192C73.2261 19.064 73.5248 18.8187 73.7808 18.456C74.0581 18.072 74.1968 17.5067 74.1968 16.76C74.1968 16.0133 74.0581 15.4693 73.7808 15.128C73.5248 14.7653 73.2154 14.5307 72.8528 14.424C72.5114 14.3173 72.2234 14.264 71.9888 14.264C71.7541 14.264 71.4661 14.3173 71.1248 14.424C70.7834 14.5307 70.4848 14.7653 70.2288 15.128C69.9728 15.4693 69.8448 16.0133 69.8448 16.76C69.8448 17.5067 69.9728 18.072 70.2288 18.456C70.4848 18.8187 70.7834 19.064 71.1248 19.192C71.4661 19.2987 71.7541 19.352 71.9888 19.352ZM88.8165 22.104C88.4325 22.4453 87.9845 22.7227 87.4725 22.936C86.9818 23.1493 86.4058 23.256 85.7445 23.256C84.5072 23.256 83.4618 22.968 82.6085 22.392C81.7765 21.7947 81.1472 21.0053 80.7205 20.024C80.2938 19.0213 80.0805 17.9227 80.0805 16.728C80.0805 15.512 80.3045 14.424 80.7525 13.464C81.2218 12.4827 81.8832 11.7147 82.7365 11.16C83.6112 10.584 84.6352 10.296 85.8085 10.296C87.3872 10.296 88.6138 10.7653 89.4885 11.704C89.7232 11.32 90.0645 11.0533 90.5125 10.904C90.9605 10.7333 91.4938 10.648 92.1125 10.648H92.6565C92.9338 10.648 93.0725 10.7867 93.0725 11.064V22.584C93.0725 22.8613 92.9338 23 92.6565 23H89.2325C88.9552 23 88.8165 22.8613 88.8165 22.584V22.104ZM86.7045 19.352C86.9392 19.352 87.2165 19.2987 87.5365 19.192C87.8778 19.064 88.1765 18.8187 88.4325 18.456C88.6885 18.072 88.8165 17.5067 88.8165 16.76C88.8165 16.0133 88.6885 15.4693 88.4325 15.128C88.1765 14.7867 87.8778 14.5627 87.5365 14.456C87.2165 14.3493 86.9392 14.296 86.7045 14.296C86.4912 14.296 86.2032 14.3493 85.8405 14.456C85.4778 14.5627 85.1578 14.7867 84.8805 15.128C84.6032 15.4693 84.4645 16.0133 84.4645 16.76C84.4645 17.5067 84.6032 18.072 84.8805 18.456C85.1578 18.8187 85.4672 19.064 85.8085 19.192C86.1712 19.2987 86.4698 19.352 86.7045 19.352ZM94.5083 19.288C94.5083 19.032 94.5616 18.8507 94.6683 18.744C94.7749 18.6373 94.8816 18.584 94.9883 18.584C95.0736 18.584 95.1589 18.616 95.2443 18.68C95.3509 18.7227 95.4789 18.7973 95.6283 18.904C95.9269 19.096 96.3429 19.32 96.8763 19.576C97.4096 19.8107 98.1029 19.928 98.9563 19.928C99.3829 19.928 99.6923 19.864 99.8843 19.736C100.076 19.5867 100.172 19.4267 100.172 19.256C100.172 19.0213 99.9909 18.8293 99.6283 18.68C99.2869 18.5093 98.8496 18.3493 98.3163 18.2C97.8043 18.0293 97.2816 17.8053 96.7483 17.528C96.2149 17.2293 95.7669 16.8347 95.4043 16.344C95.0629 15.832 94.8923 15.1707 94.8923 14.36C94.8923 13.4 95.1269 12.6213 95.5963 12.024C96.0656 11.4267 96.6629 10.9893 97.3883 10.712C98.1349 10.4347 98.8923 10.296 99.6603 10.296C100.279 10.296 100.855 10.3493 101.388 10.456C101.922 10.5627 102.359 10.68 102.7 10.808C103.319 11.0853 103.735 11.4267 103.948 11.832C104.162 12.216 104.151 12.7813 103.916 13.528L103.692 14.264C103.628 14.4347 103.532 14.52 103.404 14.52C103.319 14.52 103.244 14.5093 103.18 14.488C103.116 14.4453 103.042 14.4133 102.956 14.392C101.911 13.944 100.93 13.72 100.012 13.72C99.6923 13.72 99.4683 13.7733 99.3403 13.88C99.2336 13.9867 99.1803 14.104 99.1803 14.232C99.1803 14.488 99.3509 14.7013 99.6923 14.872C100.055 15.0213 100.492 15.1813 101.004 15.352C101.538 15.5227 102.071 15.7467 102.604 16.024C103.138 16.3013 103.575 16.6747 103.916 17.144C104.279 17.6133 104.46 18.232 104.46 19C104.46 20.2587 104.023 21.2933 103.148 22.104C102.274 22.9147 101.111 23.32 99.6603 23.32C98.7003 23.32 97.8256 23.1387 97.0363 22.776C96.2683 22.392 95.6496 21.8907 95.1803 21.272C94.7323 20.6533 94.5083 19.992 94.5083 19.288ZM109.901 18.136C110.007 18.6693 110.295 19.1173 110.765 19.48C111.255 19.8213 111.895 19.992 112.685 19.992C113.495 19.992 114.157 19.9067 114.669 19.736C115.202 19.5653 115.789 19.3413 116.429 19.064C116.642 18.9573 116.823 18.904 116.973 18.904C117.229 18.904 117.357 19.064 117.357 19.384C117.357 19.8747 117.186 20.4293 116.845 21.048C116.525 21.6667 115.97 22.2 115.181 22.648C114.413 23.096 113.346 23.32 111.981 23.32C110.039 23.32 108.482 22.744 107.309 21.592C106.157 20.4187 105.581 18.8293 105.581 16.824C105.581 15.5867 105.826 14.4773 106.317 13.496C106.829 12.5147 107.554 11.736 108.493 11.16C109.431 10.584 110.551 10.296 111.853 10.296C113.197 10.296 114.285 10.5733 115.117 11.128C115.97 11.6613 116.599 12.3547 117.005 13.208C117.41 14.0613 117.613 14.9573 117.613 15.896C117.613 16.3013 117.602 16.6533 117.581 16.952C117.559 17.2293 117.549 17.464 117.549 17.656C117.527 17.976 117.325 18.136 116.941 18.136H109.901ZM109.869 15.416H113.453C113.495 15.032 113.389 14.648 113.133 14.264C112.898 13.88 112.429 13.688 111.725 13.688C111.106 13.688 110.647 13.88 110.349 14.264C110.05 14.6267 109.89 15.0107 109.869 15.416Z" fill="#17EC92"/>
</svg>
